<?xml version="1.0" encoding="UTF-8"?>
<svg id="Vector" xmlns="http://www.w3.org/2000/svg" viewBox="0 0 500 500">
  <defs>
    <style>
      .cls-1 {
        fill: #351e0d;
      }

      .cls-2 {
        fill: #3a391a;
      }

      .cls-3 {
        fill: #773f0d;
      }

      .cls-4 {
        fill: #d8b795;
      }

      .cls-5 {
        fill: #4b1f00;
      }

      .cls-6 {
        fill: #c8ab74;
      }

      .cls-7 {
        fill: #9e5b30;
      }
    </style>
  </defs>
  <path class="cls-6" d="m359.08,226.03c28.73,0,50.5-26.58,44.29-54.71-6.29-28.42-17.33-54.31-31.96-76.24-29.2-43.75-72.72-60.7-121.41-60.91-48.68.21-92.21,17.16-121.41,60.91-14.63,21.92-25.68,47.82-31.96,76.24-6.22,28.12,15.55,54.71,44.29,54.71h218.17Z"/>
  <path class="cls-2" d="m375.89,296.7c33.16,0,58.29-32.45,51.11-66.78-7.25-34.69-19.99-66.3-36.88-93.06-33.7-53.41-83.93-74.1-140.11-74.36-56.18.26-106.41,20.95-140.11,74.36-16.89,26.76-29.63,58.37-36.88,93.06-7.18,34.33,17.95,66.78,51.11,66.78h251.77Z"/>
  <path class="cls-7" d="m353.74,173.17c-24.95-37.28-62.14-51.73-103.74-51.91-41.6.18-78.79,14.63-103.74,51.91-20.18,30.15-32.37,69.13-32.37,111.72,0,46.81,69.65,135.54,93.25,160.27,12.95,13.56,27.89,20.42,42.86,20.66,14.97-.24,29.91-7.09,42.86-20.66,23.61-24.73,93.26-113.46,93.26-160.27,0-42.59-12.19-81.57-32.37-111.72Z"/>
  <circle class="cls-4" cx="194.14" cy="253.42" r="50.35"/>
  <path class="cls-7" d="m202.71,286.47c15.18,0,27.43-13.25,25.32-28.27-.01-.1-.03-.2-.04-.29-3.52-24.35-18.4-40.67-33.85-40.67s-30.33,16.32-33.85,40.67c-.01.1-.03.2-.04.29-2.11,15.03,10.14,28.27,25.31,28.27h17.15Z"/>
  <path class="cls-1" d="m168.96,255.78s21.64-29.11,49.96,0c0,0-23.6,27.15-49.96,0Z"/>
  <path class="cls-4" d="m253.93,253.42c0,27.81,22.55,50.35,50.35,50.35s50.35-22.55,50.35-50.35-22.54-50.35-50.35-50.35-50.35,22.55-50.35,50.35Z"/>
  <path class="cls-7" d="m295.71,286.47c-15.18,0-27.42-13.25-25.31-28.27.01-.1.03-.2.04-.29,3.52-24.35,18.4-40.67,33.85-40.67s30.33,16.32,33.85,40.67c.01.1.03.2.04.29,2.11,15.03-10.14,28.27-25.31,28.27h-17.15Z"/>
  <path class="cls-1" d="m329.47,255.78s-21.64-29.11-49.96,0c0,0,23.6,27.15,49.96,0Z"/>
  <path class="cls-3" d="m264.24,348.17c1.57-51.45-4.68-80.16-9.4-94.17-1.57-4.67-8.11-4.67-9.68,0-4.72,14.02-10.97,42.72-9.4,94.17,0,0-28.48,22.58,3.93,21.11,0,0,2.46,12.27,10.31,12.27s10.31-12.27,10.31-12.27c32.4,1.47,3.93-21.11,3.93-21.11Z"/>
  <path class="cls-4" d="m250,181.04s-38.95-30.09-75.53-2.36c0,0,75.53,0,75.53,28.32,0-28.32,75.53-28.32,75.53-28.32-36.59-27.73-75.53,2.36-75.53,2.36Z"/>
  <path class="cls-5" d="m250,394.66c-33.54-28.8-47.77,12.2-47.77,12.2h95.55s-14.23-41-47.78-12.2Z"/>
  <path class="cls-3" d="m249.98,406.86h-47.75s4.46,27.32,47.75,27.51c43.29-.19,47.75-27.51,47.75-27.51h-47.75Z"/>
  <path class="cls-4" d="m296.14,372.51h-.16c-4.36,0-7.89-2.4-7.89-5.37v-45.7c0-2.96,3.53-5.36,7.89-5.36h.16c4.36,0,7.89,2.4,7.89,5.36v45.7c0,2.96-3.53,5.37-7.89,5.37Z"/>
  <path class="cls-6" d="m250.06,108.04h-.12c-3.3,0-5.97-1.53-5.97-3.42v-29.1c0-1.89,2.67-3.42,5.97-3.42h.12c3.3,0,5.98,1.53,5.98,3.42v29.1c0,1.89-2.67,3.42-5.98,3.42Z"/>
  <path class="cls-6" d="m281.92,111.58h-.12c-3.3,0-5.98-1.53-5.98-3.42v-29.1c0-1.89,2.68-3.42,5.98-3.42h.12c3.3,0,5.97,1.53,5.97,3.42v29.1c0,1.89-2.68,3.42-5.97,3.42Z"/>
  <path class="cls-6" d="m218.19,111.58h-.12c-3.3,0-5.98-1.53-5.98-3.42v-29.1c0-1.89,2.68-3.42,5.98-3.42h.12c3.3,0,5.97,1.53,5.97,3.42v29.1c0,1.89-2.68,3.42-5.97,3.42Z"/>
  <path class="cls-4" d="m319.7,372.05l-.16-.03c-4.28-.72-7.27-3.67-6.68-6.58l9.15-44.93c.59-2.91,4.55-4.69,8.83-3.97l.16.03c4.28.72,7.27,3.67,6.68,6.58l-9.14,44.93c-.6,2.91-4.55,4.69-8.83,3.97Z"/>
  <path class="cls-4" d="m203.82,372.51h.16c4.35,0,7.89-2.4,7.89-5.37v-45.7c0-2.96-3.53-5.36-7.89-5.36h-.16c-4.36,0-7.89,2.4-7.89,5.36v45.7c0,2.96,3.53,5.37,7.89,5.37Z"/>
  <path class="cls-4" d="m180.26,372.05l.16-.03c4.28-.72,7.27-3.67,6.68-6.58l-9.15-44.93c-.59-2.91-4.54-4.69-8.83-3.97l-.16.03c-4.28.72-7.27,3.67-6.68,6.58l9.15,44.93c.59,2.91,4.55,4.69,8.83,3.97Z"/>
  <path class="cls-6" d="m109.02,242.85c0,7.43-6.02,13.46-13.46,13.46s-13.46-6.02-13.46-13.46,6.02-13.46,13.46-13.46,13.46,6.03,13.46,13.46Z"/>
  <circle class="cls-6" cx="404.44" cy="242.85" r="13.46"/>
  <path class="cls-6" d="m119.62,192.66c0,5.85-4.75,10.6-10.61,10.6s-10.6-4.75-10.6-10.6,4.75-10.6,10.6-10.6,10.61,4.75,10.61,10.6Z"/>
  <circle class="cls-6" cx="390.98" cy="192.66" r="10.6"/>
</svg>