<?xml version="1.0" encoding="UTF-8"?>
<svg xmlns="http://www.w3.org/2000/svg" xmlns:xlink="http://www.w3.org/1999/xlink" viewBox="0 0 500 500">
  <defs>
    <style>
      .cls-1, .cls-2, .cls-3, .cls-4, .cls-5, .cls-6, .cls-7 {
        fill-rule: evenodd;
      }

      .cls-1, .cls-8 {
        fill: #848d92;
      }

      .cls-9 {
        fill: url(#linear-gradient-2);
      }

      .cls-2, .cls-10 {
        fill: #9aa2a3;
      }

      .cls-11, .cls-7 {
        fill: #627578;
      }

      .cls-12, .cls-3 {
        fill: #062c30;
      }

      .cls-13 {
        fill: url(#linear-gradient-6);
      }

      .cls-14 {
        isolation: isolate;
      }

      .cls-15, .cls-5 {
        fill: #66797c;
      }

      .cls-4, .cls-16 {
        fill: #465c5e;
      }

      .cls-17, .cls-6 {
        fill: #b0b8ba;
      }

      .cls-18 {
        fill: #49820d;
      }

      .cls-19 {
        fill: url(#linear-gradient-5);
      }

      .cls-20 {
        fill: #252828;
        mix-blend-mode: screen;
      }

      .cls-21 {
        fill: url(#linear-gradient-3);
      }

      .cls-22 {
        fill: url(#linear-gradient);
      }

      .cls-23 {
        fill: #5a9e18;
      }

      .cls-24 {
        fill: url(#linear-gradient-4);
      }

      .cls-25 {
        fill: #a5aeaf;
        mix-blend-mode: multiply;
      }
    </style>
    <linearGradient id="linear-gradient" x1="365.24" y1="559.31" x2="168.7" y2="294.03" gradientUnits="userSpaceOnUse">
      <stop offset="0" stop-color="#a9d827"/>
      <stop offset="1" stop-color="#679910"/>
    </linearGradient>
    <linearGradient id="linear-gradient-2" x1="299.62" y1="345.19" x2="300.4" y2="379.09" xlink:href="#linear-gradient"/>
    <linearGradient id="linear-gradient-3" x1="120.44" y1="347.87" x2="179.09" y2="431.05" gradientUnits="userSpaceOnUse">
      <stop offset="0" stop-color="#92bb22"/>
      <stop offset="1" stop-color="#68a20e"/>
    </linearGradient>
    <linearGradient id="linear-gradient-4" x1="172.59" y1="278.57" x2="172.59" y2="373.28" gradientUnits="userSpaceOnUse">
      <stop offset="0" stop-color="#c3ea34"/>
      <stop offset="1" stop-color="#679910"/>
    </linearGradient>
    <linearGradient id="linear-gradient-5" x1="296.5" y1="372.88" x2="296.5" y2="407.96" xlink:href="#linear-gradient"/>
    <linearGradient id="linear-gradient-6" x1="238.35" y1="384.18" x2="238.35" y2="429.82" xlink:href="#linear-gradient"/>
  </defs>
  <g class="cls-14">
    <g id="Vector">
      <path class="cls-22" d="m106.45,367.24c-2.23.27-4.43.61-6.59,1.01-5.89,1.1-13.29,3.94-12.76,9.47.41,4.31,5.75,6.69,10.42,6.93,4.66.24,9.5-.75,13.93.61,4.43,1.36,7.9,6.72,4.87,10.01-2.93,3.18-15.49,2.55-11.24,9.25,3.3,5.21,17.58,4.58,23.19,4.92,3.29.2,8.76-.33,11.47,1.8,1.2.94,1.41,2.15.97,3.53-.85,2.68-3.73,3.12-6.31,3.72-5.8,1.36-11.76,1.99-17.62,3.09-3.47.65-7.02,1.33-10.08,2.99-3.06,1.66-5.6,4.49-5.81,7.77-.28,4.46,3.76,8.22,8.13,10.12,7.17,3.12,15.44,2.84,23.36,2.83,14.81-.03,29.62,1.08,44.23,3.3,13.87,2.1,27.02,6.02,40.84,7.91,28.74,3.94,57.28,9.9,86.32,10.81,29.04.91,59.31-3.71,83.14-19.1,2.56-1.65,5.33-4.07,4.73-6.91-.88-4.16-7.22-4.2-11.73-3.46-4.51.74-11.06-.37-10.76-4.6.28-3.8,5.81-4.64,9.92-4.79,7.16-.26,14.26-1.76,20.83-4.41,4-1.61,7.91-3.74,10.47-6.99,2.56-3.26,3.5-7.86,1.38-11.38-2.24-3.71-7.06-5.27-11.52-6.33-5.98-1.43-12.01-2.34-18.11-3.19-2.65-.37-10.45-.27-10.91-3.43-.3-2.06,2.32-3.31,4.46-3.93,7.13-2.05,14.42-3.85,21.42-6.23,5.32-1.81,7.26-5.84,1.79-9.68-2.84-1.99-6.52-2.56-10.04-3.07-13.3-1.92-27.14-2.8-40.16-5.46-14.12-2.89-28.48-4.69-42.89-5.69-29.04-2.02-58.21-.83-87.21,1.05-8.42.55-16.84,1.16-25.26,1.77-16.01,1.17-32.02,2.34-48.04,3.5-12.55.92-26.18.68-38.84,2.24Z"/>
      <path class="cls-9" d="m372.09,377c-.3.39-.59.78-.87,1.19,1.09.51,2.51.68,3.69.85,1.03.14,2.97-.07,3.62.72-1.69,1.14-5.05.51-6.98.51-2.59,0-5.16.27-7.74.37-4.4.16-9.44.72-13.76-.36-3.33-.84-6.55-2.26-9.96-2.89-2.34-.43-4.87-.59-7.25-.6-1.24,0-3.88-.6-4.6.7,1.28.51,9.01,3.26,5.46,5.07-4.27,2.19-9.45-.44-14.22-.04-2.44.2-4.8,1.21-7.25.97.36-1.62,2.06-2.38,3.6-2.54,1.54-.17,3.18.02,4.56-.69-.06-.51-.57-.8-1.02-.98-4.74-1.92-9.87-1.93-14.87-1.93-3.58,0-7.16.01-10.74.02-1.15,0-2.61.28-2.79,1.49,1.62,1.25,3.78.77,5.72.55,3.31-.38,6.75.2,9.86,1.67-7.69,2.21-15.6-1.29-23.62-1.07-4.31.12-8.62.23-12.93.35-2.17.06-4.39.11-6.5-.54-1.62-.5-3.15-1.41-4.81-1.7-3.35-.58-7.1,1.38-9.95-.7,3.28-1.49,6.87-2.23,10.48-2.13-4.07.47-8.2-.66-12.31-1-2.66-.22-5.31-.11-7.96,0-4,.17-7.99.34-11.99.51-2.04-1.97-4.07-3.95-6.11-5.92,2.22.5,4.44,1.01,6.67,1.51-1.21-1.53-2.9-2.63-4.7-3.07,3.65.72,7.18,2.25,10.31,4.47-1.96-5.06-6-9.19-10.79-11.03,4.92.11,9.84,1.89,13.92,5.02-.84-2.88-2.7-5.45-5.1-7.05,4.24,2.1,8.57,4.74,11.95,8.25-1.34-4.48-3.92-8.56-7.33-11.57,4.51.96,7.9,5.04,10.91,8.86,0-5.7-1.66-11.45-4.69-16.24,2.06.57,3.32,2.88,4,5.06s1.05,4.56,2.39,6.37c-1.09-6.92,1.24-14.22,6-18.75-4.34,6.34-4.33,15.58-.8,22.78.63-4.41-.23-9.11-2.39-13.04,2.85,3.38,5.14,7.3,6.72,11.51.15-3.92-.68-7.91-2.38-11.46,3.73,2.74,6.74,6.64,8.56,11.08-.5-7.47-2.34-15.51-7.73-20.43,6.89,5.23,11.75,13.53,13.1,22.39.71-3.5.27-7.31-1.23-10.6,3.66,5.26,6.86,11.5,7.66,17.93.91-7.37-1.5-14.9-4.74-21.64-2.03-4.23-4.4-8.28-7.07-12.09,7.53,4.78,12.92,13.45,14.09,22.68.05-6.41-.13-13.52,1.56-19.6,1.69-6.08,5.17-11.79,10.45-14.55-6.73,8.6-8.08,20.66-9.17,32.01,1.08-6.74,5.46-12.64,11.29-15.23-6.51,6.81-9.37,17.45-7.31,27.24,1.81-3.07,3.05-6.77,3.24-10.45,1.33,2.77,1.59,6,1.08,9,2.21-4.02,3.2-8.83,2.79-13.57,1.87,3.15,3.09,6.74,3.54,10.4.72-5.23-.3-10.79-2.83-15.46s-6.55-8.42-11.18-10.44c3.92,1.3,7.91,3,10.82,6.17,1.52,1.65,2.68,3.63,3.7,5.66,1.21,2.41,2.26,4.91,3.12,7.47-.2-5.25,2.45-9.74,5.24-13.92-1.41,3.39-1.85,7.27-1.23,11,1.21-6.73,5.36-12.66,11-15.7-5.05,5.64-6.39,14.1-6.45,22.08,1.22-6.74,6.04-12.45,12.14-14.37-3.91,3.89-6.35,9.43-6.72,15.24-.04.6,0,1.33.49,1.66.45-2.28,1.17-3.79,1.62-6.07,1.37,2.09,2.24,4.54,2.52,7.04,2.39-7.09-.39-15.52-5.44-21.07,5.26,2.97,9.29,8.48,10.71,14.65-.56-6.5,1.37-13.11,5.26-17.94-.4.49-.51,1.86-.65,2.49-.21.89-.39,1.8-.55,2.7-.32,1.88-.54,3.77-.64,5.68-.2,3.73-.11,7.46.94,11.04-.15-.64.93-2.59,1.16-3.24.32-.9.53-1.8.92-2.68.75-1.72,1.67-3.34,2.76-4.83,2.19-3.02,5.02-5.5,8.25-7.13-4.69,4.57-7.42,11.4-7.31,18.35.02,1.33.18,2.77,1,3.79.16-3.59.96-7.02,2.28-10.28-.13,2.85.33,5.75,1.34,8.43,2.11-4.05.95-9.2-.26-13.79-1.33-5.03-2.81-10.33-6.36-13.96,6.85,5.06,11.65,13.3,12.86,22.04,1.05-4.73,2.1-9.43,3.84-13.89-.06,3.67.14,7.35.6,11.01.8-8.01,4.72-15.48,10.62-20.25-4.1,6.39-6.25,14.25-6.07,22.15,2.44-3.97,5.19-8.19,9.45-9.57-1.82,4.86-2.29,10.35-1.34,15.6.86-2.04,2.42-3.65,4.25-4.71,1.83-1.06,3.88-1.62,5.95-2-1.99.61-3.64,2.1-4.88,3.86-1.24,1.76-2.12,3.79-2.99,5.8,3.51-3.67,8.77-5.31,13.7-4.26-4.33.38-7.65,3.93-10.6,7.28,3.58-2.69,8.34-2.69,12.79-2.59-1.23-.03-3.42,1.89-4.46,2.49-1.88,1.07-3.56,2.46-4.95,4.12,1.99-1.12,4.24-1.76,6.52-1.86-1.7,1.04-3.22,2.5-4.47,4.1Z"/>
      <path class="cls-21" d="m133.53,368.63c-7.14.46-14.4.55-21.24,2.64-1.01.31-2.15.81-2.4,1.83-.38,1.53,1.44,2.61,2.95,3.07,3.84,1.16,7.82,1.87,11.82,2.11,1.44.09,2.9.12,4.28.52,1.38.41,2.71,1.25,3.33,2.56.9,1.89.1,4.14.45,6.2.4,2.37,2.33,4.29,4.56,5.18,2.23.89,4.73.89,7.11.58,7.66-1.01,14.83-5.3,19.34-11.58,1.88-2.61,3.35-5.84,2.63-8.97-.55-2.39-2.33-4.35-4.42-5.62-4.3-2.6-7.67-2.93-12.23-1.31-5.19,1.85-10.72,2.44-16.18,2.79Z"/>
      <path class="cls-1" d="m169.37,347.44s-17.86,8.5-24.46,17.44c-6.6,8.94-8.65,20.33-8.65,20.33l24.68,6.77s16-2.26,19.17-2.17,19.54,2.17,19.54,2.17l7.37-6.77-37.64-37.77Z"/>
      <g>
        <g>
          <path class="cls-1" d="m311.58,338.95l-15.1-90.35-99.14-47.39-5.69,118.53c-17.79,8.43-33.95,23.06-46.74,45.13,34.28,47.72,190.55,78.98,202.32,10.42-9.96-13.99-22.14-26.32-35.64-36.35Z"/>
          <path class="cls-10" d="m198.78,271.66c-.14,11.31-.72,38.67-.86,49.98-8.85,4.7-16.78,11.04-23.64,18.32-25.77,21.36-16.18,32.35,10.41,47.18,12.68,7.08,104.12,30.07,99.65,11.95-7.29-29.6-43.3-28.71-60.42-47.84-11.63-13.13-11.03-32.5-14.6-48.78-1.16-5.87-1.76-30.14-10.54-30.82Z"/>
          <path class="cls-6" d="m191.18,339.9c23.86-14.36,16.48,19.2,42.93,30.23,8.47,4.18,18.27,5.75,25.87,11.37,7.56,5.26,4.3,12.79-4.65,12.31-20.87-.86-42.51-3.92-62.06-11.41-9.45-4.08-24.49-14.62-19.34-26.33,4.28-6.51,10.7-12.06,17.26-16.17Z"/>
          <path class="cls-16" d="m235.46,318.42c-1.13-2.54-2.32-5.09-3.3-7.7,45.72.42,110.58,33.5,128.93,87.09,6.36,18.58-34.58,9.11-52.98,13.5-16.31-29.29-46.55-48.13-64.5-76.17.52-5.63-5.87-11.55-8.16-16.72Z"/>
          <g>
            <path class="cls-11" d="m318.65,360.05c-.22,1.61.64,3.05,1.93,3.24,1.29.18,2.52-.98,2.74-2.58.22-1.61-.64-3.05-1.93-3.24-1.29-.18-2.52.98-2.74,2.58Z"/>
            <path class="cls-8" d="m269.87,382c-1.31-.04-2.41,1.37-2.46,3.14-.05,1.77.97,3.23,2.28,3.27,1.31.04,2.41-1.37,2.46-3.14.05-1.77-.97-3.23-2.28-3.27Z"/>
            <path class="cls-8" d="m185.86,368.35c-1.31-.04-2.41,1.37-2.46,3.14-.05,1.77.97,3.23,2.28,3.27,1.31.04,2.41-1.37,2.46-3.14.05-1.77-.97-3.23-2.28-3.27Z"/>
            <path class="cls-11" d="m315.35,376.24c-.76-.02-1.4.79-1.43,1.82-.03,1.03.56,1.87,1.32,1.9s1.4-.79,1.43-1.82c.03-1.03-.56-1.87-1.32-1.9Z"/>
            <path class="cls-8" d="m206.04,361.02c-.76-.02-1.4.79-1.43,1.82s.56,1.87,1.32,1.9,1.4-.79,1.43-1.82c.03-1.03-.56-1.87-1.32-1.9Z"/>
          </g>
          <g>
            <path class="cls-7" d="m313.92,357.15l-18.15-108.55-78.12-37.34c-8.36,7.62-14.04,19.37-13.33,30.63,2.12,26.05,8.45,51.87,15.01,77.1,2.95,11.35,5.92,24.79,14.91,32.72,31.2,27.54,75.22,23.29,79.68,5.45Z"/>
            <path class="cls-3" d="m310.1,334.31c-21.04,48.39-92.71-14.62-109.1-93.1-.75-12.2,2.95-24.53,7.27-34.43l87.5,41.82,14.33,85.71Z"/>
          </g>
          <path class="cls-16" d="m231.92,336.92c.97,1.3,2.61,1.72,3.65.93,1.04-.78,1.1-2.47.13-3.76s-2.61-1.72-3.65-.93c-1.04.78-1.1,2.47-.13,3.76Z"/>
          <path class="cls-16" d="m210.52,294.92c.35,1.03,1.71,1.5,3.03,1.04,1.32-.45,2.11-1.65,1.76-2.68-.35-1.03-1.71-1.5-3.03-1.04-1.32.45-2.11,1.65-1.76,2.68Z"/>
          <path class="cls-16" d="m200.94,265.66c.18.51.85.75,1.51.52.66-.23,1.05-.83.88-1.34s-.85-.75-1.51-.52c-.66.23-1.05.83-.88,1.34Z"/>
          <path class="cls-16" d="m204.46,315.45c.23.91,1.1,1.47,1.94,1.25.84-.21,1.34-1.12,1.11-2.03-.23-.91-1.1-1.47-1.94-1.25-.84.21-1.34,1.12-1.11,2.03Z"/>
        </g>
        <g>
          <path class="cls-1" d="m316.27,99.04s-11.76-47.72-13.78-54.78c-2.02-7.06-14.45-12.1-39.66-10.42-25.21,1.68-58.81,11.43-59.48,20.16s-1.01,32.94-1.01,32.94l-6.27,140.44c5.83,42.08,47.5,89.57,91.41,104.67,18.37-3.58,48.84-22.27,60.49-38.92-1.79-9.93-6.66-39.77-7.56-50.08,2.25-4.56,5.03-10.3,7.82-15.54-7.38-11.15-15.05-20.25-15.5-34.37-.45-14.12-3.21-39.64-7.17-52.2-2.54-8.07-11.87-25.54-16.8-29.35l7.51-12.55Z"/>
          <path class="cls-18" d="m242.83,261.35c1.15.92,2.65,1.7,4.06,1.26,1.71-.53,2.44-2.58,2.5-4.38.15-4.37-3.75-12.93-9.36-9.92-5.49,2.94-.46,10.45,2.79,13.04Z"/>
          <path class="cls-1" d="m296.44,100.84c-1.04,12.96,3.36,19.49,8.51,28.68,5.15,9.19,15.46,25.32,22.4,31.59,6.95,6.27,10.75,11.2,6.72,18.15-4.03,6.95-16.36,19.72-22.18,19.49s-3.36-4.03-10.75-5.83c-7.39-1.79-27.56,0-33.83-4.93-6.27-4.93,2.44-19.94,3.81-28.23,3.58-21.73-1.12-42.12.22-51.31,3.81-4.03,7.05-9.2,11.3-11.24,5.51-2.65,14.24-1.98,13.8,3.63Z"/>
          <path class="cls-2" d="m286.59,153.94c-8.95,9.66-16.38,13.88-25.33,16.92-16.69,5.67-13.31-26.28-12.96-34.64.53-12.45,2.06-25.11-.74-37.26,5.49-.67,10.32-2.77,15.86-2.7,5.53.07,11.56,2.47,13.74,7.55,1.04,2.43,1.08,5.17,1.05,7.81-.07,7.81,8.5,34.49,8.38,42.3Z"/>
          <path class="cls-2" d="m221.49,282.56c-9.61-12.37-17.16-25.82-21.62-39.21-1.78-5.35-3.07-10.7-3.8-15.96l6.27-140.44s.34-24.2,1.01-32.94c.08-1.09.68-2.2,1.72-3.31.52-.55,1.14-1.11,1.86-1.66.72-.55,1.54-1.1,2.45-1.64,1.82-1.08,3.99-2.15,6.44-3.18,1.83-.77,3.82-1.52,5.93-2.24,2.81-.96,5.83-1.87,8.98-2.71,1.58-.42,3.18-.82,4.82-1.21,1.63-.38,3.28-.75,4.95-1.09.26-.05.51-.1.77-.15,5.37,20.16,9.08,40.76,11.01,61.53-3.64,2.05-8.14,1.9-12.26,1.21-3.87,20.92-5.5,43.71-2.74,64.89,2.61,19.97,3.01,38.04-6.23,56.66-6.23,12.57.63,28.05,7.72,40.14,4.11,7.01,9.62,13.11,13.93,20,4.3,6.89,7.42,15.07,5.95,23.07-.67,3.64-2.55,6.83-5.11,9.5-11.96-8.79-22.93-19.54-32.05-31.27Z"/>
          <path class="cls-6" d="m239.4,51.39c2.46,8.61,4.59,26.34,6.66,37.62-4.77.01-9.68,1-14.05,2.94-4.71-5.97-15.29-10.06-22.76-11.43-.4-6.25-.84-15.37-.84-22.12,0-5.23,2.66-6.2,10.13-8.53,7.21-2.24,19.24-4.58,20.87,1.52Z"/>
          <path class="cls-7" d="m272.82,243.96c6.88.63,13.93.29,20.78-.87,2.74-.47,5.45-1.07,8.11-1.79.37-4.14-1.03-7.93-3.18-11.43-.22-.35-.44-.7-.67-1.04-1.15-1.72-2.46-3.37-3.81-4.95-1.83-2.15-3.83-4.16-5.88-6.11-3.42-3.25-6.98-6.37-10.17-9.84-.64-.69-1.26-1.41-1.87-2.14-1.21-1.46-2.34-3-3.34-4.6-2.5-4.01-4.18-8.42-4.26-13.14,1.28-.87,2.87-1.13,4.41-1.36,3.98-.6,8.54-.81,12.72-1.61,1.39-.27,2.74-.6,4.01-1.04,1.46-.5,2.91-1.09,4.32-1.77.7-.34,1.39-.7,2.07-1.09,3.37-1.93,6.36-4.47,8.42-7.73.98-1.55,1.73-3.22,2.25-4.96.53-1.74.84-3.55.96-5.38.06-.92.08-1.84.05-2.77-.01-.46-.04-.92-.08-1.39-.07-.92-.19-1.85-.34-2.76-.23-1.37-.55-2.73-.95-4.05-1.32-4.4-3.18-8.25-5.29-12.07-1.26-2.29-2.62-4.58-4-6.97-1.12-1.95-2.18-3.94-3.15-5.96-.98-2.03-1.88-4.09-2.7-6.18-1.65-4.18-2.98-8.49-3.99-12.87-.56-2.43-.96-5.17.42-7.24.12-.19.26-.36.4-.52.29-.33.61-.62.96-.87.35-.26.72-.48,1.11-.69,2.16-1.14,4.84-1.7,6.53-3.49,1.58-1.66,1.95-3.95,1.81-6.3-.01-.24-.03-.47-.05-.71-.07-.71-.17-1.42-.3-2.12-.08-.47-.17-.92-.27-1.37-3.48-16.65-6.95-33.31-10.43-49.96,1.88.37,3.6.82,5.12,1.33.77.26,1.49.53,2.17.82.34.15.67.29.99.45.95.46,1.81.95,2.56,1.47.5.35.96.71,1.38,1.08,1.46,1.3,2.4,2.75,2.84,4.29.82,2.87,3.25,12.45,5.84,22.81.1.4.2.8.3,1.2.2.8.4,1.61.6,2.41.1.4.2.81.3,1.21.2.8.4,1.61.6,2.41.3,1.2.6,2.39.89,3.57.2.78.39,1.56.58,2.33.1.38.19.76.28,1.14.47,1.89.92,3.71,1.34,5.41.08.34.17.68.25,1.01.16.66.32,1.31.48,1.93.38,1.55.73,2.96,1.04,4.19.12.49.24.95.34,1.39.05.22.1.42.15.62.1.4.19.76.27,1.09.33,1.32.51,2.06.51,2.06l-7.51,12.55c4.93,3.81,16.36,17.25,17.99,27.82,2,12.88,5.53,39.62,5.98,53.74.22,7.06,2.25,12.86,5.15,18.3,1.45,2.72,3.11,5.34,4.88,7.98.88,1.32,1.79,2.65,2.71,3.99.92,1.34,1.84,2.71,2.77,4.1-2.79,5.25-5.58,10.99-7.82,15.54.22,2.58.7,6.37,1.31,10.78.61,4.4,1.36,9.41,2.14,14.41.58,3.75,1.18,7.49,1.75,10.96.38,2.32.74,4.51,1.08,6.51.17,1,.33,1.95.48,2.85.31,1.79.58,3.34.8,4.58-1.09,1.56-2.35,3.14-3.75,4.72-.93,1.05-1.93,2.11-2.97,3.17-.52.53-1.06,1.05-1.61,1.58-2.2,2.1-4.61,4.18-7.16,6.21-.64.51-1.28,1.01-1.94,1.51-4.58,3.51-9.55,6.83-14.59,9.78-2.76,1.62-5.55,3.13-8.3,4.5-2.41-.64-4.75-1.5-6.95-2.68-.39-.21-.77-.43-1.15-.67-.76-.47-1.5-1-2.2-1.58-4.25-3.46-7.43-8.64-7.58-13.91-.01-.44,0-.88.03-1.32.44-6.3-1.66-12.49-4.61-18.12-.42-.8-.86-1.6-1.31-2.38-.45-.78-.92-1.55-1.39-2.32-.95-1.54-1.94-3.05-2.93-4.56-2.48-3.77-5.01-7.52-7.08-11.53-2.49-4.81-4.2-10.86-4.26-16.56-.02-1.9.14-3.76.52-5.53,1.36.21,2.73.37,4.11.5Z"/>
          <path class="cls-1" d="m253.65,232.13c4.07-.86,57.78-19.68,93.22-2.01-2.32,4.49-4.58,9.13-6.46,12.94.09.99-20.34-10.51-82.51,1.17,0,0-15.24-2.69-11.87-15.8,0,0,3.36,4.59,7.62,3.7Z"/>
          <path class="cls-4" d="m257.91,244.23c40.18-13.53,63.86-10.64,84.49-5.21-.7,1.41-1.36,2.77-1.99,4.04.19,2.19.33,3.17.33,3.17-17.85-4.73-66.52,13.18-82.83-2Z"/>
          <g>
            <path class="cls-4" d="m271.35,108.45c-10.08,4.26-29.8,3.58-32.71-9.41,19.72-10.98,57.58-13.44,77.63,0l-7.51,12.55s-10.77,3.89-15.73-1.7l-21.68-1.43Z"/>
            <path class="cls-3" d="m240.55,103.47c5.93,8.66,22.02,8.69,30.8,4.99l21.68,1.43c4.96,5.59,15.73,1.7,15.73,1.7l5.25-8.77c-23.35-13.63-54.37-8.39-73.46.65Z"/>
            <path class="cls-4" d="m244.02,281.53c28.43,17.8,63.99,29.49,92.42,23.99-14.36,12.53-35.1,23.83-48.95,26.54-43.91-15.1-85.59-62.59-91.41-104.67,0,0,11.99,31.63,47.95,54.14Z"/>
            <path class="cls-2" d="m319.13,195.49c-2.8-.41-5.6-1.17-8.28-2.03-5.91-1.89-13-3.63-17.17-8.59-4.6-5.46-5.86-11.24-4.16-18.24,1.39-5.73,3.95-11.31,3.8-17.21-.19-7.62-4.75-14.13-8.09-20.69-3.65-7.15-3.67-13.56-4.39-21.38-.1-1.06-1.39-7.95-.73-8.48.82-.66,1.66-1.24,2.55-1.67,5.51-2.65,14.24-1.98,13.8,3.63-1.04,12.96,3.36,19.49,8.51,28.68,5.15,9.19,15.46,25.32,22.4,31.59,6.95,6.27,10.75,11.2,6.72,18.15-2.72,4.69-9.23,12.03-14.96,16.24Z"/>
            <path class="cls-6" d="m325.03,161.84c1.27,1.02,2.6,2.03,3.52,3.38.92,1.35,1.39,3.13.77,4.64-.7,1.71-2.63,2.65-4.47,2.73-1.84.08-3.64-.53-5.38-1.13-5.59-1.94-11.17-3.87-16.76-5.81-2.06-.71-4.35-1.63-5.17-3.65-.76-1.85,0-3.94.51-5.88,2.16-8.21-.4-16.87-3.43-24.8-3.03-7.93-6.62-15.94-6.57-24.43.01-1.7.26-3.58,1.56-4.68,4.35-3.66,4.31,6.42,4.67,8.32.93,4.83,2.28,9.58,4.01,14.19,3.47,9.21,8.5,17.84,14.81,25.4,3.58,4.28,7.57,8.22,11.93,11.72Z"/>
            <path class="cls-5" d="m286.59,153.94c-4.03,3.81-9.58,10.44-12.77,8.74-1.94-1.03-1.63-5.81-1.75-10.5,1.62-18.78-1.9-35.61-.72-43.72,3.81-4.03,7.05-9.2,11.3-11.24.91-.44,1.9-.77,2.93-1.02-2.49,2.88-2.87,6.5-1.68,10.92,1.57,5.83,4.03,22.4,7.39,30.92,3.36,8.51-.67,12.1-4.7,15.91Z"/>
            <path class="cls-4" d="m268.09,188.51c8.99-17.39,26.03-24.68,37.1-16.65,9.69,7.03,22.44,7.29,30.19-.45.69,2.43.38,4.96-1.29,7.84-4.03,6.95-16.36,19.72-22.18,19.49-5.83-.22-3.36-4.03-10.75-5.83-7.12-1.73-26.06-.13-33.06-4.41Z"/>
            <path class="cls-3" d="m291.07,182.17c6.57-3.18,16.66,0,10.82,10.96-.24-.07-.47-.14-.74-.21-4.52-1.1-13.81-.85-21.78-1.63,3.96-3.04,7.16-6.93,11.7-9.13Z"/>
            <path class="cls-3" d="m316.77,197.07c2.36-4.67,3.23-9.23,6.56-11.76,2.56-1.95,4.51-1.04,5.34,1.2-3.62,4.13-8.1,8.31-11.9,10.56Z"/>
            <path class="cls-4" d="m280.99,228.1c-21.76,5.6-34.95,8.74-34.95.34,12.77,10.25,45.47-20.5,102.2-.92-.67,1.26-1.34,2.55-2,3.84-16.89-6.29-44.27-8.65-65.25-3.26Z"/>
          </g>
          <g>
            <path class="cls-1" d="m209.29,85.56c-9.39-.67-17.25,7.66-17.95,21.59-.6,11.91-4.63,99.86-4.01,108.17.9,12.06,7.17,17.41,14.82,17.41,8.48,0,21.92-10.91,23.27-22.34,1.78-15.11,4.41-80.21,4.1-100.37-.29-19.04-10.82-23.79-20.23-24.46Z"/>
            <path class="cls-2" d="m212.96,136.69c1.01-21.84,2.04-48.62-6.64-48.17-8.68.44-11.37,12.21-11.71,28.67-.34,16.47-4.7,82.5-4.71,91.08,0,8.07,14.82,4.36,18.5-14.12,3.68-18.48,4.56-57.46,4.56-57.46Z"/>
            <path class="cls-6" d="m196.62,120.22c.11-6.76.27-13.64,2.4-20.05,2.25-7.75,9.22-4.77,9.46,2.1,3.91,24.48-2.02,50.95-3.45,73.06-.29,4.47-7.39,9.48-9.3,4.58-1-19.75,1.99-39.77.9-59.69Z"/>
            <path class="cls-7" d="m188.15,220.48c9.87.94,22.86-8.49,25.18-23.41,3.58-23.08,4.26-64.41,4.7-80.35.37-13.14-.04-23.17-5.84-30.81,8.55,1.44,17.07,7.01,17.33,24.11.31,20.16-2.32,85.27-4.1,100.37-1.34,11.43-14.79,22.34-23.27,22.34-6.45,0-11.92-3.82-14.01-12.26Z"/>
          </g>
          <ellipse class="cls-15" cx="278.72" cy="48.18" rx="2.53" ry="3.94" transform="translate(-.6 92.73) rotate(-18.87)"/>
          <path class="cls-15" d="m260.95,275.75c.29.85,1.17,1.33,1.97,1.05.8-.27,1.2-1.18.91-2.04-.29-.85-1.17-1.33-1.97-1.05-.8.27-1.2,1.18-.91,2.04Z"/>
          <path class="cls-15" d="m246.61,191.14c.29.85,1.17,1.33,1.97,1.05.8-.27,1.2-1.18.91-2.04-.29-.85-1.17-1.33-1.97-1.05-.8.27-1.2,1.18-.91,2.04Z"/>
          <ellipse class="cls-15" cx="257.77" cy="52.7" rx="2.38" ry="2.22" transform="translate(71.93 238.93) rotate(-56.61)"/>
          <path class="cls-15" d="m251.38,217.28c-.72,1.1-.48,2.53.54,3.21,1.02.67,2.44.33,3.16-.77.72-1.1.48-2.53-.54-3.21-1.02-.67-2.44-.33-3.16.77Z"/>
          <path class="cls-15" d="m275.89,72.72c-.5.75-.33,1.74.37,2.2.7.46,1.67.23,2.17-.53.5-.75.33-1.74-.37-2.2-.7-.46-1.67-.23-2.17.53Z"/>
          <path class="cls-8" d="m227.28,57.9c-.5.75-.33,1.74.37,2.2.7.46,1.67.23,2.17-.53.5-.75.33-1.74-.37-2.2-.7-.46-1.67-.23-2.17.53Z"/>
          <path class="cls-8" d="m219.91,71.96c-1.31-.04-2.41,1.37-2.46,3.14-.05,1.77.97,3.23,2.28,3.27,1.31.04,2.41-1.37,2.46-3.14.05-1.77-.97-3.23-2.28-3.27Z"/>
          <path class="cls-17" d="m195.63,193.44c-1.31-.04-2.41,1.37-2.46,3.14-.05,1.77.97,3.23,2.28,3.27s2.41-1.37,2.46-3.14c.05-1.77-.97-3.23-2.28-3.27Z"/>
          <ellipse class="cls-8" cx="218.79" cy="246.23" rx="3.2" ry="2.37" transform="translate(-33.58 457.9) rotate(-88.36)"/>
          <g>
            <ellipse class="cls-16" cx="308.83" cy="124.67" rx="2.36" ry="2.94" transform="translate(-13.06 210.15) rotate(-36.86)"/>
            <ellipse class="cls-16" cx="297.04" cy="202.59" rx="2.36" ry="2.94" transform="translate(-62.15 218.65) rotate(-36.86)"/>
            <ellipse class="cls-16" cx="308.76" cy="275.79" rx="2.58" ry="3.21" transform="translate(-17.45 20.87) rotate(-3.77)"/>
            <path class="cls-16" d="m332.65,262.67c.97,1.3,2.61,1.72,3.65.93,1.04-.78,1.1-2.47.13-3.76s-2.61-1.72-3.65-.93c-1.04.78-1.1,2.47-.13,3.76Z"/>
            <path class="cls-16" d="m304.71,80.4c.23.91,1.1,1.47,1.94,1.25.84-.21,1.34-1.12,1.11-2.03-.23-.91-1.1-1.47-1.94-1.25-.84.21-1.34,1.12-1.11,2.03Z"/>
            <path class="cls-16" d="m324.7,208.84c.23.91,1.1,1.47,1.94,1.25.84-.21,1.34-1.12,1.11-2.03-.23-.91-1.1-1.47-1.94-1.25-.84.21-1.34,1.12-1.11,2.03Z"/>
          </g>
        </g>
        <circle class="cls-12" cx="293.17" cy="316.26" r="2.82" transform="translate(-65.97 554.99) rotate(-80.78)"/>
        <path class="cls-11" d="m231.69,283.55c-.59.51-1.89-.03-2.91-1.21s-1.36-2.54-.77-3.05c.59-.51,1.89.03,2.91,1.21,1.02,1.18,1.36,2.54.77,3.05Z"/>
        <path class="cls-23" d="m210.96,341.24c1.81,2.28,3.97,4.26,5.82,6.51,1.85,2.25,3.42,4.86,3.75,7.75.33,2.89-.82,6.09-3.35,7.53-3.2,1.83-7.52.22-9.79-2.69-2.27-2.91-2.95-6.73-3.28-10.41-.19-2.15-.76-4.45-.59-6.61.08-1.05.42-2.1,1.12-2.89,1.84-2.05,4.83-1.07,6.33.81Z"/>
        <path class="cls-23" d="m226.34,244.89c1.52-.49,2.98.92,3.71,2.34,1.26,2.44,1.6,5.24,1.91,7.97.3,2.63-.05,5.3-3.2,5.28-1.84,0-3.34-.96-4.15-2.56-1.39-2.77-1.94-11.85,1.73-13.03Z"/>
        <path class="cls-23" d="m239.52,288.34c1.43,1.73,3.09,3.34,5.16,4.2,2.07.86,4.61.84,6.4-.51,1.9-1.45,2.56-4.13,2.09-6.48-.46-2.35-1.86-4.4-3.43-6.21-1.57-1.81-3.34-3.44-4.77-5.35-2.12-2.85-6.14-13.26-11.21-9.98-4.19,2.72-.78,12.15.63,15.67,1.25,3.13,2.98,6.07,5.13,8.66Z"/>
        <path class="cls-18" d="m232.33,273.28c.59,2.54,1.49,4.96,2.07,6.39,1.25,3.13,2.98,6.07,5.13,8.66,1.43,1.73,3.09,3.34,5.16,4.2,2.07.86,4.61.84,6.4-.51,1.53-1.16,2.23-3.11,2.22-5.05-3.16-1.74-6.27-3.56-9.28-5.45-4.23-2.65-8.11-5.42-11.69-8.25Z"/>
        <path class="cls-23" d="m231.23,362.67c1.24,3.89,3.74,7.24,6.2,10.5,1.93,2.56,3.99,5.23,6.94,6.5,2.61,1.12,5.64.97,8.31.03,3.03-1.07,5.72-3.17,7.34-5.94,1.63-2.77,2.14-6.21,1.25-9.29-1.65-5.66-7.31-8.98-11.18-13.43-1.76-2.03-3.19-4.35-5.07-6.27-1.56-1.59-4.3-3.79-6.7-2.92-1.98.72-3.81,3.63-4.89,5.31-2.9,4.53-3.84,10.35-2.2,15.5Z"/>
        <path class="cls-18" d="m261.27,364.47c-1.65-5.66-7.31-8.98-11.18-13.43-1.76-2.03-3.19-4.35-5.07-6.27-1.56-1.59-4.3-3.79-6.7-2.92-1.98.72-3.81,3.63-4.89,5.31-.49.77-.93,1.58-1.3,2.42.67.73,1.36,1.45,2.11,2.11,8.55,7.55,18.06,12.7,27.46,15.85,0-1.04-.13-2.08-.42-3.08Z"/>
        <path class="cls-18" d="m287.01,331.89c.24-.55.42-1.18.5-1.9.44-3.92-2.44-8.05-4.09-11.41-.88-1.79-1.76-4.03-3.28-5.4-1.26-1.14-2.91-1.72-4.14-2.96-5.31-5.37-6.79-13.56-12.1-19.12-2.47-2.58-8.12-5.48-9.99-.71-1.53,3.9.45,10.85-5.15,12.06-5.2,1.13-10.39-5.75-12.85-9.31-1.96-2.84-3.67-6.05-5.34-9.07-.83-1.52-2.03-4.81-3.67-5.61-1.46-.71-2.57.49-3.9-1.06-1.2-1.4-1.43-3.91-2.01-5.61-.75-2.19-1.71-4.84-3.06-6.75-1.77-2.51-4.19-3.12-4.97.2-.25,1.08-.47,2.62-.58,4.31,17.22,27.64,45.39,52.15,74.62,62.35Z"/>
        <path class="cls-23" d="m209.22,299.64c-1.93-.66-7.66,12.31-9.39,5.6-.88-3.4,1.94-9.04,2.6-12.44.61-3.14,2.07-7.47.98-10.63-.71-2.07-2.65-2.8-3.33-4.89-1.44-4.45.84-10.06.32-14.69-.31-2.75-1.68-9.92-5.54-9.79l-3.21,66.94c-11.44,5.42-22.21,13.42-31.84,24.3,5.48,1,13.19-2.77,17.38-4.19,4.17-1.41,9.11-2.61,12.99-4.67,3.82-2.04,8.15-2.6,11.88-4.94,5.29-3.33,5.33-8.72,6.01-14.51.4-3.4,1.34-6.45,2.11-9.76.33-1.43,1.12-5.62-.97-6.33Z"/>
        <g>
          <path class="cls-20" d="m245.59,180.27c-.79.08-1.55.4-2.24.79-.45.25-.9.55-1.23.95-.08.09-.14.19-.2.29.13.47.43.89.95,1.18.87.48,2.02.25,2.76-.42.74-.66,1.09-1.68,1.11-2.68,0-.02,0-.05,0-.07-.38-.06-.77-.07-1.15-.03Z"/>
          <path class="cls-25" d="m246.59,179.39c-.29-.7-1.06-1.14-1.82-1.13-1.69.03-3.31,2.38-2.85,4.04.06-.1.13-.2.2-.29.33-.4.77-.7,1.23-.95.7-.39,1.45-.71,2.24-.79.38-.04.77-.02,1.15.03,0-.31-.04-.63-.15-.91Z"/>
        </g>
        <g>
          <path class="cls-20" d="m309.27,213.3c-.63.06-1.22.31-1.77.62-.36.2-.71.43-.97.75-.06.07-.11.15-.16.23.1.37.34.7.75.93.69.38,1.6.19,2.18-.33.58-.52.86-1.33.87-2.11,0-.02,0-.04,0-.06-.3-.04-.61-.06-.91-.03Z"/>
          <path class="cls-25" d="m310.06,212.61c-.23-.55-.84-.9-1.44-.89-1.33.02-2.61,1.88-2.25,3.19.05-.08.1-.15.16-.23.26-.32.61-.55.97-.75.55-.31,1.14-.56,1.77-.62.3-.03.61-.02.91.03,0-.25-.03-.49-.12-.72Z"/>
        </g>
        <g>
          <path class="cls-20" d="m304.94,259.76c-.79.08-1.55.4-2.24.79-.45.25-.9.55-1.23.95-.08.09-.14.19-.2.29.13.47.43.89.95,1.18.87.48,2.02.25,2.76-.42.74-.66,1.09-1.68,1.11-2.68,0-.02,0-.05,0-.07-.38-.06-.77-.07-1.15-.03Z"/>
          <path class="cls-25" d="m305.94,258.88c-.29-.7-1.06-1.14-1.82-1.13-1.69.03-3.31,2.38-2.85,4.04.06-.1.13-.2.2-.29.33-.4.77-.7,1.23-.95.7-.39,1.45-.71,2.24-.79.38-.04.77-.02,1.15.03,0-.31-.04-.63-.15-.91Z"/>
        </g>
        <g>
          <path class="cls-20" d="m195.87,359.65c-.79.08-1.55.4-2.24.79-.45.25-.9.55-1.23.95-.08.09-.14.19-.2.29.13.47.43.89.95,1.18.87.48,2.02.25,2.76-.42.74-.66,1.09-1.68,1.11-2.68,0-.02,0-.05,0-.07-.38-.06-.77-.07-1.15-.03Z"/>
          <path class="cls-25" d="m196.87,358.77c-.29-.7-1.06-1.14-1.82-1.13-1.69.03-3.31,2.38-2.85,4.04.06-.1.13-.2.2-.29.33-.4.77-.7,1.23-.95.7-.39,1.45-.71,2.24-.79.38-.04.77-.02,1.15.03,0-.31-.04-.63-.15-.91Z"/>
        </g>
        <g>
          <path class="cls-20" d="m230.78,228.43c-1.06.1-2.07.49-3,.98-.61.32-1.2.68-1.64,1.19-.1.11-.19.24-.27.36.18.59.58,1.11,1.28,1.47,1.17.6,2.71.31,3.7-.52.99-.83,1.46-2.1,1.48-3.33,0-.03,0-.06,0-.09-.51-.07-1.03-.09-1.54-.04Z"/>
          <path class="cls-25" d="m232.12,227.33c-.39-.87-1.42-1.42-2.44-1.41-2.26.03-4.43,2.97-3.82,5.03.08-.12.17-.24.27-.36.44-.5,1.03-.87,1.64-1.19.93-.49,1.94-.88,3-.98.51-.05,1.03-.03,1.54.04,0-.39-.05-.78-.21-1.14Z"/>
        </g>
        <g>
          <path class="cls-20" d="m266.18,148.89c-.5.05-.98.25-1.42.5-.29.16-.57.35-.78.6-.05.06-.09.12-.13.18.08.3.27.56.6.74.55.3,1.28.16,1.75-.26.47-.42.69-1.06.7-1.69,0-.02,0-.03,0-.05-.24-.03-.49-.05-.73-.02Z"/>
          <path class="cls-25" d="m266.81,148.33c-.18-.44-.67-.72-1.15-.72-1.07.02-2.09,1.51-1.8,2.55.04-.06.08-.12.13-.18.21-.26.49-.44.78-.6.44-.25.92-.45,1.42-.5.24-.02.49-.01.73.02,0-.2-.02-.4-.1-.58Z"/>
        </g>
        <g>
          <path class="cls-20" d="m309.16,161.69c.47-.18.99-.22,1.49-.2.33.01.66.05.96.19.07.03.13.07.2.1.06.31,0,.63-.2.94-.36.52-1.07.72-1.68.55s-1.1-.64-1.39-1.19c0-.01-.01-.03-.02-.04.2-.14.41-.26.64-.35Z"/>
          <path class="cls-25" d="m308.35,161.48c-.04-.48.27-.95.7-1.16.96-.47,2.55.4,2.76,1.46-.06-.04-.13-.07-.2-.1-.3-.13-.64-.17-.96-.19-.5-.02-1.02.01-1.49.2-.23.09-.44.21-.64.35-.09-.18-.16-.36-.17-.56Z"/>
        </g>
        <g>
          <path class="cls-20" d="m317.59,135.39c.47-.18.99-.22,1.49-.2.33.01.66.05.96.19.07.03.13.07.2.1.06.31,0,.63-.2.94-.36.52-1.07.72-1.68.55s-1.1-.64-1.39-1.19c0-.01-.01-.03-.02-.04.2-.14.41-.26.64-.35Z"/>
          <path class="cls-25" d="m316.77,135.18c-.04-.48.27-.95.7-1.16.96-.47,2.55.4,2.76,1.46-.06-.04-.13-.07-.2-.1-.3-.13-.64-.17-.96-.19-.5-.02-1.02.01-1.49.2-.23.09-.44.21-.64.35-.09-.18-.16-.36-.17-.56Z"/>
        </g>
        <g>
          <path class="cls-20" d="m244.67,122.45c.66-.27,1.38-.35,2.07-.37.45,0,.91.01,1.32.16.09.03.18.07.26.12.06.38-.04.79-.35,1.2-.53.68-1.54.99-2.36.83-.82-.16-1.46-.72-1.82-1.4,0-.02-.02-.03-.03-.05.29-.19.59-.36.91-.49Z"/>
          <path class="cls-25" d="m243.57,122.25c-.01-.6.45-1.22,1.06-1.52,1.36-.67,3.48.3,3.69,1.63-.08-.04-.17-.08-.26-.12-.4-.14-.86-.17-1.32-.16-.69.01-1.41.1-2.07.37-.32.13-.62.3-.91.49-.11-.21-.19-.45-.2-.69Z"/>
        </g>
        <g>
          <path class="cls-20" d="m270.31,66.88c.95-.38,1.98-.51,2.98-.53.65-.01,1.31.02,1.89.23.13.05.26.11.38.17.09.55-.05,1.14-.51,1.72-.76.98-2.21,1.42-3.39,1.19-1.18-.23-2.1-1.03-2.62-2.01-.01-.02-.03-.05-.04-.07.41-.28.85-.52,1.31-.7Z"/>
          <path class="cls-25" d="m268.72,66.59c-.02-.86.65-1.75,1.53-2.18,1.96-.96,5.01.44,5.31,2.34-.12-.06-.25-.12-.38-.17-.58-.21-1.24-.24-1.89-.23-1,.02-2.02.14-2.98.53-.46.19-.9.43-1.31.7-.16-.31-.27-.64-.28-.99Z"/>
        </g>
        <g>
          <path class="cls-20" d="m239.48,77.63c4,0,7.15-1.45,9.64-4.22,1.12-1.25,2.21-1.79,3.51-2.85-7.66.55-13.15,7.07-13.15,7.07Z"/>
          <path class="cls-25" d="m248.16,69.56c-1.55.21-3.01.92-4.27,1.85-2.09,1.53-3.7,3.74-4.4,6.23,0,0,5.49-6.52,13.15-7.07-1.27-.92-2.92-1.22-4.48-1.01Z"/>
        </g>
        <g>
          <path class="cls-20" d="m201.76,153.29c2.83,0,5.06-1.03,6.82-2.99.79-.88,1.56-1.27,2.48-2.02-5.42.39-9.31,5-9.31,5Z"/>
          <path class="cls-25" d="m207.9,147.57c-1.1.15-2.13.65-3.02,1.31-1.48,1.09-2.62,2.64-3.12,4.41,0,0,3.88-4.62,9.31-5-.9-.65-2.07-.86-3.17-.71Z"/>
        </g>
        <g>
          <path class="cls-20" d="m276.36,199.7c-1.9,2.09-4.17,3.06-6.8,3.04-1.19,0-1.99.3-3.16.48,3.93-3.75,9.96-3.52,9.96-3.52Z"/>
          <path class="cls-25" d="m268.01,200.4c.85-.71,1.91-1.14,3-1.36,1.8-.36,3.72-.16,5.36.66,0,0-6.03-.23-9.96,3.52.12-1.1.75-2.11,1.6-2.82Z"/>
        </g>
        <g>
          <path class="cls-20" d="m229.44,322.69c-3.98,4.38-7.9,7.13-11.86,8.51-1.79.62-3.16,1.54-5.02,2.45,7.92-8.13,16.88-10.96,16.88-10.96Z"/>
          <path class="cls-25" d="m216.48,328.26c1.66-1.6,3.49-2.85,5.24-3.78,2.9-1.54,5.69-2.24,7.72-1.79,0,0-8.96,2.83-16.88,10.96.77-1.84,2.26-3.8,3.92-5.39Z"/>
        </g>
        <g>
          <path class="cls-20" d="m223.9,324.75c-3.98,4.38-7.9,7.13-11.86,8.51-1.79.62-3.16,1.54-5.02,2.45,7.92-8.13,16.88-10.96,16.88-10.96Z"/>
          <path class="cls-25" d="m210.93,330.32c1.66-1.6,3.49-2.85,5.24-3.78,2.9-1.54,5.69-2.24,7.72-1.79,0,0-8.96,2.83-16.88,10.96.77-1.84,2.26-3.8,3.92-5.39Z"/>
        </g>
      </g>
      <path class="cls-24" d="m136.83,390.21c-.3-1.95-1.11-3.4-2.61-4.73-1.81-1.6-4.06-2.59-6.28-3.55,5.93-.15,11.89,1.1,17.25,3.62-2-5.23-6.87-8.72-11.47-11.9,6.62-1.58,12.53,5.29,17.28,10.32-1.44-8.06-5.84-15.56-12.18-20.75,5.97.96,13.55,10.37,16.76,18.13-1.14-12.32-6.56-25.01-17.18-31.35,8.16,1.13,19.52,16.08,22.23,28.14.28-11.88-7.15-22.88-16.67-30-2.52-1.89-5.42-3.63-8.57-3.54-2.11.06-4.11.95-5.95,1.98-3.75,2.09-7.14,4.83-9.97,8.06,2.14-5.39,4.96-10.78,9.64-14.22,4.68-3.43,11.63-4.34,16.19-.74,1.86,1.47,3.15,3.51,4.41,5.51,4.94,7.85,9.88,15.71,14.82,23.56-1.18-11.54-5.94-23.15-15.02-30.36-3.46-2.75-7.64-4.84-12.06-4.84-4.79,0-9.34,2.52-12.59,6.04-3.26,3.51-5.36,7.94-6.95,12.46.85-5.26,2.32-10.54,5.31-14.95,2.99-4.41,7.69-7.89,12.99-8.43,7.64-.78,14.63,4.49,19.37,10.53,5.72,7.29,9.46,16.13,10.69,25.32-.46-7.92-2.28-15.77-5.35-23.09-1.74-4.14-3.9-8.15-6.87-11.52-2.57-2.91-5.68-5.28-8.83-7.54-4.15-2.97-8.53-5.84-13.49-7.05-4.71-1.15-9.64-.75-14.47-.34,3.63-3.03,8.55-4.27,13.26-3.96,4.72.31,9.25,2.07,13.32,4.49,14.58,8.65,23.05,25.47,24.71,42.35,2.86-14.45-1.64-30.16-11.73-40.9-2.37-2.53-5.25-4.89-8.68-5.31-1.93-.23-3.88.17-5.72.79-5.55,1.89-10.35,5.91-13.2,11.04,1.09-4.16,3.1-8.07,5.83-11.38,3.46-4.2,8.6-7.56,14.02-7.05,6.42.61,11.1,6.26,14.33,11.84,3.54,6.12,6.01,12.54,7.8,19.38.34-18.79-10.98-37.31-27.86-45.57,9.66-.14,18.39,6.59,23.29,14.91,4.91,8.32,6.36,17.85,7.86,27.39.26-5.58.44-11.16.52-16.75.15-10.19-.15-20.95-5.44-29.67,5.22,5.06,8.49,11.96,9.75,19.12,1.26,7.16.59,14.58-1.3,21.6,4.52-10.68,10.49-20.45,17.33-29.81-.23,10.95-7.48,20.26-13.08,29.67-6.42,10.79-11.63,22.32-10.64,34.83.54-11.13,5.3-22.01,13.1-29.97,3.86-3.94,9.04-7.33,14.5-6.61-13.43,8.6-22.35,23.59-24.9,39.33,2.29-5.54,5.28-10.8,8.88-15.6,2.11-2.81,4.46-5.51,7.43-7.4,3.79-2.41,8.58-3.35,12.91-2.17,4.33,1.18,8.09,4.58,9.34,8.9,1.25,4.32-.25,9.39-3.85,12.06.76-4.7-1.03-9.54-3.9-13.34-1.52-2.01-3.46-3.86-5.9-4.47-4.05-1.02-8.1,1.62-11.08,4.55-7.69,7.56-12.41,18.06-12.95,28.83,2.51-9.91,8-19.21,16.15-25.4,8.14-6.18,19.01-8.99,28.94-6.54,2.92.72,5.9,2,7.6,4.49-11.72-2.39-24.46-.83-34.57,5.58-10.11,6.4-17.16,17.9-16.95,29.86,2.3-7.12,5.49-14.08,10.39-19.75,4.89-5.67,11.63-9.98,19.06-10.9-12.91,6.49-22.42,19.35-24.84,33.6,2.95-9.96,13.06-21.9,20.4-21.75-7.63,5.51-13.14,13.55-12.11,22.91.51-6.08,4.03-11.83,9.21-15.04-3.36,4.81-4.39,11.17-2.73,16.79.28-7.28,8.99-14.5,15.18-14.35-5.75,4.34-10.93,10.01-9.34,17.04,2.48-4.58,6.74-7.74,11.62-9.54-2.76,2.64-5.03,5.78-6.67,9.23,3.65-1.91,7.95-2.54,11.99-1.77-3.18,1.49-6.01,3.71-8.21,6.45,3.34-.78,6.88-.74,10.2.13-3.71,1.98-6.78,3.72-11.01,3.74-4.57.02-9.14-.1-13.7-.35-2.52-.14-4.74-.64-7.21-.92-1.19-.13-2.36-.05-3.52.22-.73.17-2.75,1.47-3.33,1.34,1.77.39,3.54,1.42,5.35,1.94,1.79.51,4.26.6,5.58,1.94-3.34-.02-6.71.44-10.09.4-3.65-.04-7.34-.51-11-.71-4.25-.23-9.12.12-13.34.92-1.55.29-11.98,4.57-12.28,1.6-.21-2.12,7.24-3.5,8.77-4.15,2.27-.96,6.76-1.84,8.18-4.02,2.72-4.16-15.84-4.28-17.75-4.28-2.8,0-5.45.16-8.21-.19-2-.26-4.47.53-6.3-.38-6.32-3.15,6.04-4.8,6.16-4.02Z"/>
      <path class="cls-19" d="m206.93,421.77c-4.09-2.73-10.43-.92-14.81-3.69-.04,3.65,4.3,6.25,7.18,7.54,3.87,1.74,7.11.78,11.19.26,5.38-.69,9.99-2.88,15.5-3.28,6.96-.51,13.75.82,20.67.67,3.91-.08,8.04-.2,11.91-.63,2.16-.24,4.74-.98,6.82-.46-2.69,4.21-11.08,1.59-14.62,5.16,2.36,1.61,6.55,1.71,9.36,1.7,4.57-.01,8.99.5,13.54.79,4.02.25,8.1.36,12.12.32,2.3-.02,7.12.8,8.66-1.33-2.26-4.79-12.96-2.02-16.75-6.05,1.69-1.83,7.14-1.75,9.5-1.87,4.84-.25,9.76-.04,14.6-.15,9.33-.2,18.47-2.24,27.72-3.36,8.93-1.08,16.73-3.13,25.82-1.13,6.81,1.49,13.34,1.89,20.24,2.44,5.56.44,10.61-1.15,16.19-1.4,2.44-.11,7.25.3,9.12-1.37-1.35-1.67-7.8-1.8-9.91-2.18-3.39-.62-7.85-1.67-5.07-5.67,1.21-1.74,7.69-8.04,10.12-7.06-6.41-2.59-15.53,2.59-17.62,4.19,2-5.95,7.46-9.55,13.19-12.06-6.13-1.4-12.77,1.54-17.53,5.47.8-3.37,4.02-5.53,6.84-7.57-4.46-1.09-11.3,5.24-15.17,9.54,1.28-5.23,4.13-10.12,8.07-13.86-5.48,1.49-9.31,6.44-12.7,11.08-.47-6.5,3.19-14.82,6.7-17.83-3.07-.37-7.51,2.74-9.18,12.49.78-7.99-2.69-16.13-8.91-20.89,5.86,6.86,6.59,17.41,2.83,25.95-1.13-4.98-.45-10.43,1.87-15.1-3.93,1.67-5.73,8.78-7.32,13.73-.5-4.46.2-9.09,1.99-13.29-4.37,3.46-7.75,8.18-9.62,13.41,0-8.57,1.61-17.92,7.84-24-7.9,3.92-13.35,16.48-14.29,26.71-1.16-3.94-.92-8.32.65-12.21-3.35,1.67-7.5,13.73-7.96,21.15-1.72-8.33.63-17.15,4.06-25.12,2.15-5.01,4.74-9.84,7.71-14.42-8.88,6.12-14.79,16.49-15.48,27.13-.59-7.32-.95-15.45-3.52-22.25-2.57-6.8-7.32-13.02-14.03-15.69,8.98,9.23,11.62,22.88,13.88,35.75-1.88-7.61-7.74-13.96-15.13-16.4,8.57,7.21,12.94,19.1,11.21,30.47-2.47-3.35-4.31-7.46-4.84-11.65-1.4,3.28-1.46,7-.6,10.38-3.04-4.4-4.65-9.81-4.54-15.26-2.04,3.77-3.25,7.96-3.51,12.19-1.31-5.92-.51-12.35,2.22-17.91,2.73-5.56,7.37-10.19,12.91-12.9-4.72,1.83-9.48,4.12-12.81,8-1.73,2.02-3,4.38-4.1,6.79-1.3,2.85-2.38,5.8-3.22,8.81-.18-6.01-4.98-14.42-9.02-15.82,2.96,3.26,4.31,8.52,3.85,12.84-2.03-7.58-7.62-13.99-14.81-16.97,6.67,6,9.01,15.54,9.74,24.65-2.05-7.59-8.44-13.69-16.1-15.35,5.12,4.1,8.58,10.21,9.5,16.81.1.69.11,1.52-.46,1.94-.74-2.56-1.75-4.23-2.49-6.79-1.51,2.5-2.39,5.38-2.52,8.26-3.51-7.88-.78-17.76,4.98-24.54-6.23,3.86-10.73,10.5-11.99,17.67.17-7.47-2.76-14.85-7.93-20.02,2.93,7.41,2.96,18.8,2.24,26.87-3.55-13.27-9.06-18.18-16.9-21.2,6.15,4.81,10.05,12.37,10.49,20.32.08,1.52,0,3.17-.92,4.42-.49-4.08-1.75-7.94-3.64-11.54.39,3.24.06,6.6-.96,9.75-2.93-4.44-1.92-10.42-.8-15.76,1.22-5.86,2.61-12.04,6.68-16.5-6.58,2.91-13.25,16.21-14.03,26.3-1.67-5.31-3.61-13.48-7.73-16.65,1.34,3.26,2.54,8.37,2.03,13.75-1.92-8.6-9.01-20.2-14.71-22.19,5.56,6.94,8.85,15.72,9.27,24.77-3.33-4.31-7.06-8.89-12.4-10.1,2.64,5.39,3.67,11.62,2.91,17.69-2.2-4.22-8.44-8.64-13.09-6.77,2.5.52,4.65,2.08,6.32,3.98,1.67,1.9,2.92,4.14,4.15,6.36-4.62-3.89-11.22-5.29-17.2-3.67,5.36.05,9.74,3.82,13.63,7.38-4.62-2.76-14.04-1.79-19.5-1.29,4.07,1.19,9.04,2.52,12.54,4.88-3.43-1.12-4.8-1.18-8.31-.05,2.08-.66,6.5,1.41,8.17,2.52Z"/>
      <path class="cls-13" d="m327.98,433.46c4.05-2.78,10.42-1.05,14.76-3.88.09,3.65-4.22,6.31-7.08,7.63-3.85,1.79-7.1.87-11.19.4-5.39-.62-10.03-2.76-15.54-3.09-6.96-.42-13.74.99-20.66.93-3.91-.03-8.04-.1-11.92-.49-2.16-.21-4.75-.92-6.82-.38,2.74,4.17,11.1,1.46,14.69,4.98-2.34,1.64-6.53,1.79-9.34,1.82-4.57.05-8.98.61-13.53.96-4.02.3-8.09.46-12.12.47-2.3,0-7.11.89-8.68-1.22,2.2-4.81,12.94-2.18,16.67-6.26-1.71-1.81-7.16-1.66-9.53-1.75-4.84-.19-9.76.08-14.6.04-9.34-.08-18.49-2.01-27.76-3.01-8.94-.97-16.76-2.92-25.83-.81-6.79,1.58-13.31,2.05-20.2,2.69-5.55.51-10.62-1.02-16.21-1.2-2.44-.08-7.25.4-9.13-1.25,1.33-1.69,7.78-1.89,9.88-2.31,3.38-.66,7.83-1.76,5-5.74-1.23-1.73-7.79-7.94-10.2-6.93,6.37-2.67,15.56,2.39,17.67,3.97-2.07-5.92-7.57-9.45-13.34-11.89,6.11-1.48,12.79,1.39,17.6,5.26-.85-3.36-4.09-5.48-6.94-7.48,4.44-1.14,11.36,5.1,15.29,9.35-1.35-5.22-4.26-10.07-8.24-13.76,5.49,1.43,9.39,6.33,12.84,10.92.38-6.51-3.37-14.78-6.92-17.74,3.07-.41,7.54,2.64,9.33,12.37-.88-7.98,2.48-16.16,8.65-21-5.77,6.93-6.37,17.49-2.51,25.98,1.07-5,.32-10.43-2.06-15.08,3.96,1.62,5.84,8.71,7.5,13.64.44-4.47-.31-9.09-2.16-13.27,4.41,3.41,7.85,8.08,9.79,13.29-.11-8.57-1.84-17.9-8.14-23.9,7.95,3.82,13.55,16.31,14.62,26.53,1.11-3.95.82-8.33-.81-12.2,3.37,1.62,7.67,13.64,8.22,21.05,1.61-8.36-.85-17.14-4.38-25.07-2.22-4.98-4.86-9.78-7.89-14.32,8.95,6.01,15,16.3,15.82,26.94.5-7.32.75-15.46,3.24-22.29,2.49-6.83,7.15-13.11,13.84-15.87-8.87,9.34-11.34,23.02-13.43,35.92,1.78-7.63,7.57-14.06,14.92-16.59-8.48,7.31-12.71,19.26-10.83,30.6,2.43-3.38,4.21-7.52,4.7-11.71,1.45,3.26,1.55,6.98.73,10.37,2.99-4.43,4.53-9.86,4.34-15.31,2.09,3.74,3.35,7.92,3.66,12.14,1.23-5.93.35-12.36-2.44-17.88-2.8-5.52-7.49-10.1-13.07-12.74,4.74,1.77,9.53,4,12.9,7.84,1.75,1.99,3.05,4.34,4.18,6.74,1.33,2.84,2.45,5.77,3.33,8.77.11-6.01,4.8-14.48,8.82-15.93-2.92,3.29-4.2,8.58-3.69,12.88,1.94-7.6,7.45-14.08,14.6-17.15-6.59,6.09-8.81,15.65-9.43,24.77,1.95-7.62,8.27-13.79,15.91-15.55-5.07,4.16-8.45,10.32-9.29,16.93-.09.69-.09,1.53.49,1.94.71-2.57,1.7-4.25,2.41-6.82,1.54,2.48,2.46,5.35,2.63,8.23,3.41-7.93.56-17.77-5.29-24.47,6.28,3.78,10.86,10.37,12.21,17.52-.26-7.47,2.57-14.89,7.68-20.12-2.83,7.45-2.72,18.84-1.9,26.9,3.38-13.31,8.83-18.29,16.63-21.41-6.09,4.89-9.9,12.5-10.24,20.45-.07,1.52.03,3.17.97,4.41.44-4.09,1.65-7.96,3.5-11.58-.35,3.25.03,6.6,1.09,9.74,2.88-4.48,1.79-10.45.61-15.77-1.3-5.84-2.76-12.01-6.89-16.41,6.61,2.83,13.45,16.04,14.36,26.12,1.61-5.33,3.44-13.52,7.52-16.75-1.3,3.28-2.44,8.4-1.86,13.78,1.81-8.62,8.76-20.31,14.43-22.37-5.47,7.01-8.65,15.83-8.96,24.88,3.27-4.36,6.94-8.98,12.28-10.25-2.57,5.42-3.52,11.66-2.69,17.73,2.15-4.25,8.33-8.74,13-6.94-2.49.55-4.62,2.14-6.27,4.06-1.65,1.92-2.86,4.18-4.07,6.41,4.57-3.94,11.16-5.43,17.15-3.88-5.35.12-9.69,3.94-13.54,7.55,4.59-2.82,14.01-1.97,19.48-1.54-4.06,1.24-9.01,2.63-12.47,5.03,3.42-1.16,4.79-1.24,8.31-.16-2.09-.64-6.49,1.49-8.14,2.63Z"/>
    </g>
  </g>
</svg>