<svg xmlns="http://www.w3.org/2000/svg" width="62" height="62" viewBox="0 0 62 62">
  <g id="Group_21907" data-name="Group 21907" transform="translate(-929 -4875.898)">
    <circle id="Ellipse_1716" data-name="Ellipse 1716" cx="31" cy="31" r="31" transform="translate(929 4875.898)" fill="#3a8eb2"/>
    <g id="noun_tap_1686624" transform="translate(934.457 4886.725)">
      <path id="Path_37970" data-name="Path 37970" d="M10.484,28.528l.137.08a44.686,44.686,0,0,1,10.3,9.479,1.008,1.008,0,0,0,.761.358h0l16.744.263h0a1.244,1.244,0,0,0,1.256-1.229v-.034l.076-7.581.027-3.805v-1.99a7.128,7.128,0,0,0-.514-2.283,7.3,7.3,0,0,0-2.98-3.516,7.991,7.991,0,0,0-1.054-.525l-.921-.35-1.83-.639C30.395,16.061,28.3,15.49,26.132,15l-.038-8.17a4.4,4.4,0,0,0-4.315-4.2,4.186,4.186,0,0,0-3.044,1.195,4.65,4.65,0,0,0-1.362,2.843,12.008,12.008,0,0,0,0,1.29V9.1L17.4,11.4l.061,4.616.118,7.1a15.884,15.884,0,0,0-1.792-1.027A20.569,20.569,0,0,0,11.8,20.654,3.805,3.805,0,0,0,7.28,24.049c0,.209,0,.43,0,.582a4.422,4.422,0,0,0,.057.613,3.688,3.688,0,0,0,1.2,2.108c.552.491,1.206.43,1.328.107a1.134,1.134,0,0,0-.438-1.069l-.091-.1a2.283,2.283,0,0,1-.609-1.381,2.694,2.694,0,0,1,.293-1.522A2.192,2.192,0,0,1,11.5,22.329a15.634,15.634,0,0,1,6.431,3.653,1.031,1.031,0,0,0,.715.308,1.012,1.012,0,0,0,1.024-1v-.034l.274-18.3a1.771,1.771,0,0,1,1.777-1.648,1.693,1.693,0,0,1,1.636,1.648l-.034,9.19a1.4,1.4,0,0,0,1.107,1.374h.023A70.461,70.461,0,0,1,31.6,19.459l1.751.605.856.32a5.034,5.034,0,0,1,.643.316,4.586,4.586,0,0,1,2.192,3.57c0,.217,0,.525,0,.852v.948l.03,3.805.061,6.34-15.051.232a57.007,57.007,0,0,0-4.909-4.825,32.08,32.08,0,0,0-6.089-4.266h0c-.571-.263-1.142-.213-1.271.114S9.986,28.265,10.484,28.528Z" transform="translate(0 -0.041)" fill="#fff"/>
    </g>
  </g>
</svg>
