<svg width="62" height="63" viewBox="0 0 62 63" fill="none" xmlns="http://www.w3.org/2000/svg">
<path d="M31 62.6474C48.1208 62.6474 62 48.7581 62 31.6247C62 14.4914 48.1208 0.602051 31 0.602051C13.8792 0.602051 0 14.4914 0 31.6247C0 48.7581 13.8792 62.6474 31 62.6474Z" fill="url(#paint0_linear_8061_474)"/>
<path d="M15.941 39.9449L16.078 40.0249C19.988 42.6258 23.4639 45.827 26.378 49.5109C26.4716 49.6219 26.588 49.7114 26.7194 49.7732C26.8507 49.835 26.9939 49.8678 27.139 49.8691L43.883 50.1323C44.2124 50.1355 44.5297 50.0078 44.7651 49.7773C45.0006 49.5467 45.135 49.2321 45.139 48.9024V48.8684L45.215 41.2818L45.242 37.4741V35.4826C45.1976 34.6979 45.0239 33.926 44.728 33.1979C44.1404 31.7338 43.095 30.4994 41.748 29.6794C41.4101 29.4785 41.0578 29.3029 40.694 29.154L39.773 28.8037L37.943 28.1643C35.852 27.4687 33.757 26.8973 31.589 26.407L31.551 18.231C31.5003 17.1128 31.026 16.0558 30.2245 15.2751C29.4229 14.4943 28.3544 14.0484 27.236 14.0279C26.6744 14.0126 26.1154 14.1106 25.5925 14.3161C25.0695 14.5215 24.5932 14.8302 24.192 15.2238C23.4208 15.9845 22.9391 16.9907 22.83 18.0689C22.8069 18.4989 22.8069 18.9298 22.83 19.3598V20.5027L22.857 22.8043L22.918 27.4237L23.036 34.5289C22.4616 34.1478 21.863 33.8045 21.244 33.5012C19.9679 32.8864 18.6319 32.4052 17.257 32.0651C16.734 31.9628 16.1953 31.9715 15.6759 32.0908C15.1564 32.2101 14.6678 32.4372 14.2417 32.7575C13.8156 33.0778 13.4614 33.4841 13.2022 33.9501C12.943 34.4161 12.7845 34.9314 12.737 35.4626C12.737 35.6717 12.737 35.8929 12.737 36.045C12.7417 36.2506 12.7608 36.4556 12.794 36.6585C12.9449 37.4769 13.3678 38.2203 13.994 38.768C14.546 39.2594 15.2 39.1983 15.322 38.8751C15.3515 38.6739 15.3264 38.4684 15.2493 38.2802C15.1723 38.092 15.0461 37.928 14.884 37.8053L14.793 37.7052C14.4393 37.327 14.2246 36.8397 14.184 36.3232C14.1305 35.7978 14.2323 35.2681 14.477 34.8001C14.7134 34.3723 15.0858 34.0358 15.5351 33.844C15.9844 33.6522 16.4848 33.6161 16.957 33.7413C19.362 34.4276 21.5674 35.6812 23.388 37.397C23.5769 37.5893 23.8336 37.6999 24.103 37.7052C24.2359 37.7068 24.3678 37.6822 24.4912 37.6328C24.6146 37.5833 24.727 37.51 24.8221 37.4171C24.9172 37.3242 24.9931 37.2134 25.0454 37.0912C25.0977 36.9689 25.1254 36.8375 25.127 36.7045V36.6705L25.401 18.3571C25.4323 17.9077 25.6334 17.487 25.9635 17.1807C26.2935 16.8743 26.7278 16.7053 27.178 16.7079C27.6094 16.7223 28.019 16.901 28.3231 17.2076C28.6272 17.5141 28.8028 17.9253 28.814 18.3571L28.78 27.5538C28.7789 27.8753 28.8882 28.1874 29.0898 28.4378C29.2914 28.6882 29.5728 28.8615 29.887 28.9288H29.91C32.3247 29.4498 34.7103 30.0975 37.057 30.8692L38.808 31.4747L39.664 31.7949C39.8856 31.8849 40.1004 31.9906 40.307 32.1111C40.9297 32.4896 41.4533 33.0111 41.8345 33.6323C42.2156 34.2536 42.4434 34.9568 42.499 35.6838C42.499 35.9009 42.499 36.2091 42.499 36.5364V37.4851L42.529 41.2929L42.59 47.6375L27.539 47.8697C26.0013 46.1627 24.362 44.5502 22.63 43.0411C20.7725 41.3867 18.7291 39.9541 16.541 38.772C15.97 38.5088 15.399 38.5589 15.27 38.8861C15.141 39.2133 15.443 39.6817 15.941 39.9449Z" fill="white"/>
<defs>
<linearGradient id="paint0_linear_8061_474" x1="31" y1="0.602051" x2="31" y2="62.6474" gradientUnits="userSpaceOnUse">
<stop stop-color="#FF6000"/>
<stop offset="0.9999" stop-color="#FF9000"/>
<stop offset="1" stop-color="#F5D7AB"/>
</linearGradient>
</defs>
</svg>
